<?xml version="1.0" encoding="UTF-8" standalone="no"?>
<!-- Created with Inkscape (http://www.inkscape.org/) -->

<svg
   version="1.1"
   id="svg1453"
   width="64"
   height="55.54126"
   viewBox="0 0 64 55.54126"
   sodipodi:docname="disable-camera.svg"
   inkscape:version="1.1.2 (b8e25be833, 2022-02-05)"
   xmlns:inkscape="http://www.inkscape.org/namespaces/inkscape"
   xmlns:sodipodi="http://sodipodi.sourceforge.net/DTD/sodipodi-0.dtd"
   xmlns="http://www.w3.org/2000/svg"
   xmlns:svg="http://www.w3.org/2000/svg">
  <defs
     id="defs1457" />
  <sodipodi:namedview
     id="namedview1455"
     pagecolor="#ffffff"
     bordercolor="#666666"
     borderopacity="1.0"
     inkscape:pageshadow="2"
     inkscape:pageopacity="0.0"
     inkscape:pagecheckerboard="0"
     showgrid="false"
     fit-margin-top="0"
     fit-margin-left="0"
     fit-margin-right="0"
     fit-margin-bottom="0"
     inkscape:zoom="1.6230469"
     inkscape:cx="376.1444"
     inkscape:cy="115.83153"
     inkscape:window-width="1920"
     inkscape:window-height="1017"
     inkscape:window-x="-8"
     inkscape:window-y="-8"
     inkscape:window-maximized="1"
     inkscape:current-layer="g1459" />
  <g
     inkscape:groupmode="layer"
     inkscape:label="Image"
     id="g1459"
     transform="translate(120.27978,-140.59125)">
    <path
       style="fill:#000000;stroke-width:0.133611"
       d="m -116.49219,195.88093 c -0.73894,-0.39039 -1.09349,-1.05727 -1.02179,-1.92187 0.0367,-0.44208 0.17075,-0.86326 0.359,-1.12764 0.16527,-0.23209 0.24111,-0.42199 0.16854,-0.42199 -0.26138,0 -1.68063,-1.41911 -2.16103,-2.16082 -0.26999,-0.41685 -0.6352,-1.19847 -0.8116,-1.73695 l -0.32071,-0.97905 v -16.03337 -16.03336 l 0.29601,-0.94083 c 0.70998,-2.25656 2.58999,-4.12376 4.91483,-4.88133 0.39286,-0.12801 2.17745,-0.194 6.736,-0.24906 l 6.20155,-0.0749 1.02882,-3.08361 c 0.56585,-1.69599 1.136308,-3.24768 1.267692,-3.44819 0.131385,-0.20052 0.467801,-0.48137 0.747594,-0.62411 0.488937,-0.24943 0.862309,-0.25952 9.604934,-0.25952 8.742625,0 9.115997,0.0101 9.604934,0.25952 0.279793,0.14274 0.61621,0.42359 0.747594,0.62411 0.131384,0.20051 0.701786,1.7522 1.267561,3.44819 l 1.02868,3.08361 1.516119,0.038 1.516119,0.038 4.284732,-4.26717 c 3.589011,-3.57431 4.374843,-4.29379 4.839693,-4.43107 0.825323,-0.24374 1.486328,-0.0704 2.06953,0.54266 0.608279,0.63944 0.760314,1.33884 0.452906,2.0835 -0.158025,0.38279 -6.969747,7.2774 -26.096508,26.41405 -14.81538,14.82304 -26.09463,26.00653 -26.37839,26.15444 -0.62185,0.32412 -1.23504,0.32043 -1.86281,-0.0112 z m 19.422807,-24.69798 c 0.09771,-2.50453 0.839703,-4.21757 2.58109,-5.95896 1.078267,-1.07826 2.029644,-1.68141 3.424663,-2.17115 0.800583,-0.28106 1.27351,-0.35146 2.582855,-0.38451 l 1.602826,-0.0404 1.727259,-1.76733 1.727258,-1.76734 -0.524245,-0.18808 c -1.104255,-0.39616 -2.949121,-0.69674 -4.287013,-0.69847 -7.389075,-0.01 -13.26182,5.8528 -13.27093,13.24743 -0.002,1.45253 0.2259,2.99553 0.61483,4.16649 l 0.21695,0.65316 1.771911,-1.76826 1.77191,-1.76827 z m -3.423077,17.07211 5.356868,-5.35687 0.826122,0.41703 c 5.190348,2.62008 11.379198,1.62224 15.452611,-2.49146 1.574718,-1.59029 2.653203,-3.43742 3.366184,-5.7653 0.325663,-1.06329 0.353768,-1.34366 0.356785,-3.55922 0.0031,-2.24757 -0.02076,-2.48372 -0.363926,-3.6075 -0.201962,-0.66138 -0.595405,-1.66393 -0.874319,-2.22789 l -0.507115,-1.02539 2.17834,-2.17534 2.178342,-2.17534 0.305059,0.27798 c 0.603522,0.54996 0.797545,0.5786 3.918995,0.5786 2.838915,0 3.062043,-0.0179 3.533736,-0.28297 0.740491,-0.41618 1.115513,-1.16369 1.040092,-2.07317 -0.07338,-0.88488 -0.383982,-1.34776 -1.175894,-1.75241 -0.521123,-0.26628 -0.787249,-0.30063 -2.329432,-0.30063 h -1.741095 l 3.538811,-3.5407 c 2.426429,-2.42772 3.628743,-3.5407 3.824912,-3.5407 0.505513,0 2.367404,1.03872 3.044545,1.6985 0.89821,0.87518 1.633392,2.04915 1.986914,3.17277 l 0.296011,0.94083 v 15.89975 c 0,17.26005 0.02882,16.56787 -0.758946,18.22516 -0.558452,1.17486 -1.994642,2.61801 -3.182591,3.19801 -1.756346,0.85751 -0.599911,0.81826 -24.183458,0.82081 l -21.444421,0.002 z m 10.742887,-8.01732 c -0.815499,-0.15922 -2.004171,-0.53908 -2.004171,-0.64047 0,-0.0454 2.607587,-2.68956 5.794639,-5.87598 l 5.794639,-5.79349 0.298926,0.85044 c 0.422452,1.20188 0.519949,3.3868 0.209499,4.69495 -0.297299,1.25273 -0.979474,2.6396 -1.792784,3.64476 -1.94631,2.40541 -5.36963,3.69205 -8.300748,3.11979 z"
       id="path1538" />
  </g>
</svg>
