<?xml version="1.0" encoding="UTF-8" standalone="no"?>
<!-- Created with Inkscape (http://www.inkscape.org/) -->

<svg
   version="1.1"
   id="svg1263"
   width="64"
   height="52.110481"
   viewBox="0 0 64.000001 52.110482"
   sodipodi:docname="enable-camera.svg"
   inkscape:version="1.1.2 (b8e25be833, 2022-02-05)"
   xmlns:inkscape="http://www.inkscape.org/namespaces/inkscape"
   xmlns:sodipodi="http://sodipodi.sourceforge.net/DTD/sodipodi-0.dtd"
   xmlns="http://www.w3.org/2000/svg"
   xmlns:svg="http://www.w3.org/2000/svg">
  <defs
     id="defs1267" />
  <sodipodi:namedview
     id="namedview1265"
     pagecolor="#ffffff"
     bordercolor="#666666"
     borderopacity="1.0"
     inkscape:pageshadow="2"
     inkscape:pageopacity="0.0"
     inkscape:pagecheckerboard="0"
     showgrid="false"
     fit-margin-top="0"
     fit-margin-left="0"
     fit-margin-right="0"
     fit-margin-bottom="0"
     inkscape:zoom="21.539184"
     inkscape:cx="30.71147"
     inkscape:cy="12.024597"
     inkscape:window-width="1920"
     inkscape:window-height="1017"
     inkscape:window-x="-8"
     inkscape:window-y="-8"
     inkscape:window-maximized="1"
     inkscape:current-layer="g1269" />
  <g
     inkscape:groupmode="layer"
     inkscape:label="Image"
     id="g1269"
     transform="translate(11.43002,-7.2730681)">
    <path
       style="fill:#000000;stroke-width:0.125243"
       d="m -5.7937054,59.247802 c -1.9174851,-0.360385 -3.9781412,-1.950552 -4.8424596,-3.736828 -0.836413,-1.728603 -0.793483,-0.759616 -0.793483,-17.909773 V 22.008427 l 0.304879,-0.98693 c 0.56906,-1.842113 1.8817833,-3.419036 3.544135,-4.257431 1.5112683,-0.762195 2.0700408,-0.825304 7.32893862,-0.827758 l 4.66530768,-0.0022 v -1.668052 c 0,-1.169656 0.06034,-1.871304 0.2019471,-2.348309 0.6762367,-2.2779097 2.3606395,-3.9120347 4.5689502,-4.4325704 1.1997934,-0.2828114 21.5711484,-0.2828114 22.7709414,0 2.208311,0.5205357 3.892714,2.1546607 4.56895,4.4325704 0.141609,0.477005 0.201948,1.178653 0.201948,2.348309 v 1.668052 l 4.665307,0.0022 c 5.258899,0.0025 5.817671,0.06557 7.328938,0.827758 1.662354,0.838395 2.975075,2.415318 3.544135,4.257431 l 0.304879,0.986925 v 15.592774 c 0,17.150157 0.04293,16.18117 -0.793481,17.909773 -0.888515,1.836282 -2.936478,3.384283 -4.959395,3.748672 -0.9587,0.172692 -51.6893477,0.161272 -52.6104374,-0.0118 z M 22.93786,53.195738 c 1.392376,-0.209131 3.479306,-0.853246 4.603992,-1.420986 4.430543,-2.236531 7.649997,-6.54129 8.493053,-11.356129 0.25441,-1.452985 0.254591,-4.054787 3.75e-4,-5.51015 -0.886259,-5.073904 -4.369808,-9.513158 -9.097781,-11.59374 -8.476797,-3.730281 -18.2632233,0.571086 -21.2488229,9.339363 -1.0512005,3.087223 -1.0559685,6.892508 -0.012466,10.006932 1.8455383,5.508564 6.7245309,9.637726 12.4474339,10.534447 1.403145,0.219859 3.351536,0.219965 4.814286,2.5e-4 z m -3.460859,-5.332413 c -5.313726,-0.535817 -9.45395,-5.38375 -9.136454,-10.698198 0.257734,-4.314106 2.965159,-7.826919 7.160976,-9.291172 0.940185,-0.328105 1.129325,-0.349659 3.068456,-0.349659 1.939134,0 2.128273,0.02156 3.068458,0.349659 4.197897,1.464979 6.920669,4.997457 7.163662,9.294016 0.350612,6.199458 -5.07712,11.325376 -11.325098,10.695354 z"
       id="path1348" />
  </g>
</svg>
