<?xml version="1.0" encoding="UTF-8" standalone="no"?>
<!-- Created with Inkscape (http://www.inkscape.org/) -->

<svg
   version="1.1"
   id="svg1073"
   width="63.999992"
   height="78.878654"
   viewBox="0 0 63.999993 78.878655"
   sodipodi:docname="mute.svg"
   inkscape:version="1.1.2 (b8e25be833, 2022-02-05)"
   xmlns:inkscape="http://www.inkscape.org/namespaces/inkscape"
   xmlns:sodipodi="http://sodipodi.sourceforge.net/DTD/sodipodi-0.dtd"
   xmlns="http://www.w3.org/2000/svg"
   xmlns:svg="http://www.w3.org/2000/svg">
  <defs
     id="defs1077" />
  <sodipodi:namedview
     id="namedview1075"
     pagecolor="#ffffff"
     bordercolor="#666666"
     borderopacity="1.0"
     inkscape:pageshadow="2"
     inkscape:pageopacity="0.0"
     inkscape:pagecheckerboard="0"
     showgrid="false"
     fit-margin-top="0"
     fit-margin-left="0"
     fit-margin-right="0"
     fit-margin-bottom="0"
     inkscape:zoom="8.0645138"
     inkscape:cx="62.062018"
     inkscape:cy="37.076011"
     inkscape:window-width="1920"
     inkscape:window-height="1017"
     inkscape:window-x="-8"
     inkscape:window-y="-8"
     inkscape:window-maximized="1"
     inkscape:current-layer="g1079" />
  <g
     inkscape:groupmode="layer"
     inkscape:label="Image"
     id="g1079"
     transform="translate(10.586011,-14.561824)">
    <path
       style="fill:#000000;stroke-width:0.154615"
       d="M 5.5681485,93.381209 C 4.4541792,93.092965 4.2054122,92.479057 4.2725242,90.183884 4.3226749,88.468757 4.3421191,88.37918 4.7533659,87.968202 l 0.428576,-0.428294 6.6450351,-0.04341 6.645033,-0.04341 v -2.079581 c 0,-2.033295 -0.0077,-2.081095 -0.347882,-2.147855 -3.201941,-0.628459 -6.133434,-1.60248 -7.959144,-2.644522 -1.173817,-0.669963 -3.1344428,-1.961586 -3.1344428,-2.064907 0,-0.05192 0.9151074,-1.011389 2.033571,-2.132161 l 2.0335728,-2.037766 0.56194,0.354737 c 4.614062,2.91273 10.98609,3.592788 15.995752,1.707156 6.052216,-2.278047 10.365698,-7.259743 11.69994,-13.51241 0.258302,-1.21049 0.333865,-2.286834 0.407936,-5.81081 l 0.09091,-4.325125 0.429269,-0.429269 c 0.425022,-0.425022 0.449061,-0.42927 2.428575,-0.42927 1.899475,0 2.01942,0.01864 2.402164,0.373358 0.221573,0.205347 0.44832,0.554486 0.503884,0.775863 0.05556,0.221378 0.06439,2.331997 0.01964,4.690265 -0.09173,4.832527 -0.231682,5.858415 -1.191202,8.731724 -1.347817,4.036076 -3.460708,7.347067 -6.560688,10.280881 -3.268278,3.093091 -7.48944,5.325657 -11.605759,6.138271 -0.680304,0.134304 -1.393463,0.279755 -1.584798,0.323222 -0.339606,0.07716 -0.347882,0.128512 -0.347882,2.158618 v 2.079581 l 6.645033,0.04341 6.645035,0.04341 0.428576,0.428294 c 0.41125,0.410978 0.430691,0.500555 0.480842,2.215682 0.05781,1.977167 -0.07314,2.510595 -0.725012,2.953255 -0.387119,0.262877 -1.273459,0.279325 -16.180227,0.300267 -8.673871,0.01221 -15.9069269,-0.01306 -16.0734584,-0.05616 z M -7.9670605,83.121534 c -1.5603825,-0.704853 -2.4807825,-2.051901 -2.5948065,-3.797609 -0.126619,-1.938516 0.06883,-2.218323 5.0581873,-7.241388 l 4.3042019,-4.333282 -0.3755567,-1.082301 c -0.9944911,-2.86598 -1.2887319,-5.135389 -1.2893134,-9.944143 -5.877e-4,-4.886324 -0.046164,-4.81284 2.98778563,-4.818098 l 1.98322897,-0.0035 0.4519482,0.451951 0.4519505,0.451948 0.00138,3.06553 c 0.00138,3.054762 0.1988337,6.222562 0.4263274,6.837536 0.1069421,0.289096 0.3213457,0.121404 2.00675,-1.569551 L 7.3319682,59.2454 7.3765342,42.77896 7.4211072,26.312522 7.7685378,25.075606 c 0.756839,-2.69448 2.1448069,-4.987801 4.1714832,-6.892489 1.492232,-1.402413 3.306205,-2.456852 5.372367,-3.122887 1.4855,-0.478857 1.646208,-0.498406 4.097283,-0.498406 2.451075,0 2.611783,0.01955 4.097283,0.498406 2.066162,0.666035 3.880135,1.720474 5.372367,3.122887 1.461944,1.373947 2.362551,2.59849 3.201057,4.352425 0.954323,1.996203 1.261522,3.386561 1.358289,6.147539 l 0.08308,2.370559 5.429077,-5.406627 c 3.54235,-3.527703 5.670869,-5.532171 6.124841,-5.767881 1.020118,-0.529664 2.870516,-0.522386 3.923615,0.01543 2.101255,1.073112 2.995869,3.606805 2.020434,5.722194 -0.342416,0.742581 -3.943655,4.403405 -28.408895,28.878932 C -6.3899181,85.509519 -4.1896258,83.446086 -6.2523538,83.439211 -6.9394497,83.436906 -7.4979052,83.333455 -7.9670713,83.12152 Z M 19.631618,74.152588 c -1.856905,-0.243518 -3.609035,-0.866325 -5.449182,-1.936951 -0.275835,-0.160485 -0.501958,-0.326766 -0.502497,-0.36951 -4.63e-4,-0.04274 4.907599,-4.982676 10.90697,-10.977626 l 10.907946,-10.899907 -0.05553,6.184578 c -0.05163,5.751256 -0.07877,6.268354 -0.38718,7.380263 -1.175322,4.237309 -3.69928,7.347723 -7.525363,9.273921 -2.232586,1.123971 -5.429175,1.668627 -7.895168,1.345232 z"
       id="path1158" />
  </g>
</svg>
