<?xml version="1.0" encoding="UTF-8" standalone="no"?>
<!-- Created with Inkscape (http://www.inkscape.org/) -->

<svg
   version="1.1"
   id="svg824"
   width="64"
   height="78.878654"
   viewBox="0 0 64 100.30296"
   sodipodi:docname="unmute.svg"
   inkscape:version="1.1.2 (b8e25be833, 2022-02-05)"
   xmlns:inkscape="http://www.inkscape.org/namespaces/inkscape"
   xmlns:sodipodi="http://sodipodi.sourceforge.net/DTD/sodipodi-0.dtd"
   xmlns="http://www.w3.org/2000/svg"
   xmlns:svg="http://www.w3.org/2000/svg">
  <defs
     id="defs828" />
  <sodipodi:namedview
     id="namedview826"
     pagecolor="#ffffff"
     bordercolor="#666666"
     borderopacity="1.0"
     inkscape:pageshadow="2"
     inkscape:pageopacity="0.0"
     inkscape:pagecheckerboard="0"
     showgrid="false"
     fit-margin-top="0"
     fit-margin-left="0"
     fit-margin-right="0"
     fit-margin-bottom="0"
     inkscape:zoom="1.742513"
     inkscape:cx="147.2012"
     inkscape:cy="230.12741"
     inkscape:window-width="1920"
     inkscape:window-height="1017"
     inkscape:window-x="-8"
     inkscape:window-y="-8"
     inkscape:window-maximized="1"
     inkscape:current-layer="g830" />
  <g
     inkscape:groupmode="layer"
     inkscape:label="Image"
     id="g830"
     transform="translate(-84.24216,-1.4932224)">
    <path
       style="fill:#000000;stroke-width:0.19634"
       d="m 99.091073,101.60274 c -3.089893,-0.726 -3.643183,-4.883647 -0.852955,-6.409445 0.55775,-0.304996 1.401734,-0.350158 7.548942,-0.403933 l 6.92098,-0.06055 v -4.781129 -4.78113 L 111.28458,84.93562 C 100.94992,83.259 92.241466,76.865523 87.611717,67.555753 85.46406,63.23712 84.250413,58.400058 84.24227,54.126616 c -0.0031,-1.617828 0.05726,-1.951705 0.484553,-2.680817 0.871524,-1.487146 2.846608,-2.066308 4.37916,-1.284125 1.418896,0.724175 1.979494,1.831002 1.999473,3.947692 0.03202,3.392819 1.124761,7.495541 2.874012,10.790603 3.684353,6.940204 10.190842,11.691982 17.909652,13.079659 2.21597,0.398386 6.49011,0.398386 8.70608,0 7.71881,-1.387677 14.2253,-6.139455 17.90965,-13.079659 1.74926,-3.295062 2.84199,-7.397784 2.87402,-10.790603 0.02,-2.11669 0.58057,-3.223517 1.99947,-3.947692 1.53255,-0.782183 3.50764,-0.203021 4.37916,1.284125 0.42729,0.729112 0.48764,1.062989 0.48455,2.680817 -0.008,4.273442 -1.22179,9.110504 -3.36944,13.429137 -4.62975,9.30977 -13.33821,15.703247 -23.67287,17.379871 l -1.42346,0.230933 v 4.78113 4.781129 l 6.92098,0.06055 c 6.14721,0.05378 6.99119,0.09894 7.54894,0.403933 1.61526,0.88328 2.28395,2.996495 1.45953,4.61248 -0.49669,0.973591 -1.25014,1.540011 -2.40162,1.805451 -1.09254,0.25185 -33.13884,0.2439 -34.213037,-0.008 z M 113.29706,72.637998 C 105.82973,71.195236 99.972381,66.199329 97.614249,59.261644 96.607359,56.299345 96.592151,55.936346 96.653089,36.318096 l 0.05665,-18.237114 0.520429,-1.888709 C 99.059604,9.5529973 103.76548,4.5576514 110.2231,2.4001198 c 2.04271,-0.682483 3.53214,-0.9068974 6.01906,-0.9068974 2.48692,0 3.97635,0.2244144 6.01906,0.9068974 6.57758,2.19761 11.34501,7.352298 13.07288,14.1347782 l 0.44389,1.742426 v 18.946804 18.946807 l -0.51675,1.867483 c -1.62649,5.878017 -5.42924,10.429195 -10.82631,12.957047 -2.75702,1.291319 -4.15339,1.598412 -7.60375,1.672247 -1.6738,0.03582 -3.26415,0.02245 -3.53412,-0.02971 z"
       id="path968" />
  </g>
</svg>
